<svg width="150" height="60" viewBox="0 0 150 60" fill="none" xmlns="http://www.w3.org/2000/svg">
<path d="M54.8591 20.8726C53.7854 20.4836 52.5205 21.5186 50.2201 23.3965C49.1034 24.3091 47.8361 25.3441 46.3224 26.4343C42.2119 29.3977 38.5844 31.7631 35.813 30.6705C35.0885 30.3847 34.7441 29.8876 34.7298 29.1023C34.725 28.8934 34.7465 28.6653 34.792 28.4227C40.6457 26.869 45.6816 23.7783 46.2842 21.3553C46.4755 20.5892 46.2507 19.912 45.6338 19.3981C44.5888 18.5264 43.1182 18.4591 41.3822 19.2012C39.6174 19.9576 37.6208 21.5642 36.0378 23.5022C34.8757 24.9262 34.065 26.3503 33.6968 27.6254C33.6274 27.7311 33.5964 27.856 33.6035 27.9785C33.5103 28.3819 33.4672 28.7661 33.4744 29.1191C33.4983 30.3895 34.1439 31.3093 35.3372 31.7799C35.9326 32.0153 36.571 32.1378 37.2382 32.1426C37.2549 32.1426 37.2741 32.1426 37.2908 32.1426C40.2439 32.1426 43.6036 29.8972 47.0757 27.3925C48.6204 26.2782 49.9595 25.1832 51.0355 24.3043C51.4205 23.9897 51.8151 23.6679 52.1881 23.3701C51.9561 24.2682 52.1116 25.3825 52.652 26.6913C53.5176 28.7925 52.7261 30.2502 51.5592 30.7617C50.1364 31.3861 48.8236 30.5648 48.2067 29.5394C48.0369 29.2584 47.6591 29.1552 47.3626 29.3113C47.212 29.3905 47.1044 29.5226 47.0589 29.6811C47.0159 29.8372 47.0374 29.9981 47.1211 30.1374C47.9987 31.5998 49.3138 32.1762 50.5382 32.1762C51.0881 32.1762 51.6166 32.0609 52.0805 31.8568C53.7854 31.1075 54.9834 29.0855 53.8141 26.2518C52.5922 23.2908 54.0078 22.6449 54.7682 22.2966C55.0623 22.1622 55.4641 21.9797 55.4402 21.5234C55.4258 21.2232 55.2273 21.0023 54.8495 20.8678M41.8891 20.2962C42.5132 20.0297 43.0799 19.8928 43.5749 19.8928C43.5845 19.8928 43.5917 19.8928 43.6012 19.8928C44.0819 19.8976 44.486 20.0345 44.8064 20.301C45.0646 20.5172 45.1388 20.7453 45.0599 21.0695C44.8447 21.9364 43.5295 23.178 41.6285 24.3139C39.8207 25.3945 37.5682 26.3527 35.2415 27.0371C36.4395 24.3835 39.3879 21.3673 41.8891 20.2962Z" fill="black"/>
<path d="M26.2257 6.735C26.2113 6.58611 26.1348 6.44923 26.0128 6.35557C25.7689 6.16826 25.4198 6.19948 25.219 6.42761C17.5862 15.056 10.8884 25.315 6.84243 34.5725C6.78504 34.7046 6.78265 34.8535 6.83765 34.988C6.89504 35.1272 7.01221 35.2401 7.15807 35.2953C7.21785 35.317 7.28002 35.3314 7.3422 35.3338C7.35176 35.3338 7.36133 35.3338 7.37089 35.3338C7.59806 35.3338 7.80609 35.2017 7.89457 35C11.8999 25.8409 18.5331 15.6852 26.0942 7.13844C26.1946 7.02557 26.24 6.88389 26.2257 6.735Z" fill="black"/>
<path d="M81.956 22.3866C82.1354 22.096 82.4367 21.6109 81.9226 21.2843C81.4228 20.9649 81.0761 21.3828 80.7724 21.7478C77.9556 25.1409 71.6501 28.9567 70.2298 28.1259C70.2035 28.1114 70.1485 28.0778 70.1198 27.9409C70.0552 27.6264 70.0959 26.5962 71.8653 23.8226C72.8792 22.2353 73.9648 20.8617 73.9767 20.8473C74.0341 20.7752 74.3306 20.4222 74.3785 20.2445C74.4454 19.9948 74.2685 19.8939 74.2685 19.8939C74.1537 19.8099 73.9552 19.7859 73.8189 19.8051C73.6276 19.8339 73.5965 19.8459 73.3766 19.8891C73.3598 19.8915 73.3479 19.8939 73.3431 19.8963C72.4894 20.0572 71.6215 20.2109 70.7415 20.3598C69.2088 20.6167 67.1739 20.9337 65.1462 21.1787C65.8086 20.086 66.4757 19.0054 67.1404 17.9344C68.5082 15.7275 69.7994 13.6407 70.9519 11.5539C71.0308 11.4123 71.0452 11.2514 70.9974 11.1001C70.9471 10.944 70.83 10.8095 70.6769 10.7375C70.3733 10.591 69.9979 10.7063 69.8377 10.992C68.7019 13.05 67.4178 15.12 66.0548 17.3221C65.2347 18.6476 64.4049 19.9852 63.5896 21.3492C61.4997 21.5557 59.5557 21.6421 58.3338 21.4596C57.9919 21.4068 57.6714 21.6325 57.6164 21.9567C57.5901 22.1104 57.6284 22.2665 57.7193 22.3938C57.8173 22.5282 57.9703 22.6219 58.1401 22.6483C59.2998 22.8212 60.988 22.7828 62.8316 22.6315C60.8469 26.0367 58.9866 29.6243 57.5638 33.6058C57.5112 33.7547 57.5208 33.9156 57.5901 34.0573C57.6643 34.2061 57.8006 34.3214 57.9656 34.3718C58.0277 34.3911 58.0923 34.4007 58.1545 34.4007H58.1616C58.4294 34.4007 58.6686 34.2374 58.7546 33.9948C60.2467 29.8188 62.2433 26.0607 64.3595 22.485C67.1978 22.1824 70.1652 21.695 72.0351 21.3612C71.6717 21.8631 71.2245 22.5066 70.7869 23.191C69.2733 25.5612 68.6684 27.1437 68.8788 28.1715C68.9673 28.6013 69.2064 28.9399 69.5674 29.1536C69.8663 29.3289 70.237 29.4202 70.6722 29.4226C70.6817 29.4226 70.6913 29.4226 70.7032 29.4226C72.6903 29.4226 75.7845 27.6624 78.3382 25.6788C73.8548 32.4291 70.433 40.1063 67.8984 49.0947C67.8769 49.1571 67.7932 49.4261 67.9128 49.6638C67.963 49.7647 68.073 49.8992 68.2977 49.9616C68.3599 49.9784 68.4221 49.988 68.4819 49.988C68.5895 49.988 68.6899 49.9616 68.7784 49.9064C69.0127 49.7647 69.0916 49.4885 69.106 49.4309C70.7056 44.023 74.4287 33.4305 81.4204 23.2174C81.6165 22.9317 81.7647 22.6867 81.8747 22.509L81.9465 22.3914L81.956 22.3866Z" fill="black"/>
<path d="M91.9711 13.5719C94.3838 9.44867 96.469 5.88013 96.787 5.03482C96.8277 4.96518 96.9257 4.76345 96.8779 4.53772C96.8444 4.38643 96.7511 4.25675 96.6053 4.1655C96.2251 3.92535 95.8736 4.16069 95.7301 4.37922L95.7158 4.40564C94.6445 6.69181 91.9137 11.3554 89.2714 15.8653C87.2532 19.3114 85.3474 22.5677 84.4842 24.2608C81.7199 29.6832 80.8232 34.6806 82.2532 36.693C82.3703 36.8563 82.5616 36.9572 82.7697 36.9572H82.7745C82.894 36.9572 83.0112 36.9236 83.114 36.8611C83.2599 36.7723 83.3579 36.633 83.3914 36.4721C83.4249 36.3136 83.3914 36.1527 83.2934 36.0182C82.1671 34.4285 83.1021 29.9114 85.6224 24.7747C86.7056 22.5653 89.501 17.7865 91.9687 13.5695" fill="black"/>
<path d="M133.117 28.7637C132.866 28.5259 132.462 28.5307 132.235 28.7901C128.725 32.7764 125.951 33.0573 124.777 33.0549C123.28 33.0525 122.235 32.5218 121.542 31.5877C121.152 31.0642 120.898 30.399 120.786 29.6546C123.636 27.952 126.271 25.6899 127.515 23.8745C129.098 21.5667 128.232 20.4021 127.577 19.9098C126.884 19.3911 126.037 19.2734 125.131 19.5664C123.11 20.2196 120.86 23.0028 119.897 26.0405C119.583 27.0251 119.447 28.0216 119.476 28.9606C116.795 30.4542 115.014 30.7856 114.464 30.4326C113.78 29.9956 114.194 29.0014 115.373 26.9314C116.37 25.1856 117.498 23.2093 116.025 22.1022C113.782 20.4189 109.971 23.4278 106.167 27.3108C107.238 25.2961 108.23 23.3966 108.634 22.4961C108.933 21.8285 108.507 21.5139 108.419 21.4587C108.056 21.2281 107.604 21.4058 107.417 21.6244C107.307 21.754 107.118 21.9942 106.858 22.3256C102.709 27.6134 99.7941 30.3774 98.1992 30.5383C97.8788 30.5695 97.7186 30.4686 97.6253 30.3918C96.7239 29.6282 98.5866 26.4055 99.4809 24.859C99.7917 24.3211 100.06 23.8576 100.241 23.4878C100.562 22.8371 100.093 22.5225 100.038 22.4889C99.6674 22.2607 99.2346 22.4552 99.0026 22.7674C96.5206 26.1005 92.0396 31.1602 89.8589 31.4388C89.5169 31.482 89.3543 31.386 89.2611 31.3115C88.4026 30.6223 89.4117 27.7839 90.8895 25.565C92.8311 22.6522 95.8894 20.0539 98.0079 21.2281C98.3092 21.3962 98.6894 21.2858 98.8568 20.9832C99.0242 20.6806 98.9142 20.2988 98.6129 20.1307C95.7889 18.565 92.1783 21.3818 89.8517 24.8686C88.9096 26.283 88.2161 27.7479 87.9005 28.9966C87.4103 30.9393 87.9435 31.859 88.4792 32.2913C88.8976 32.6299 89.4165 32.762 90.0167 32.6851C91.4346 32.505 93.3428 31.1266 95.8487 28.4755C96.1261 28.1825 96.3963 27.8872 96.6593 27.5942C96.052 29.1071 95.8511 30.5287 96.8219 31.3499C97.2284 31.6957 97.7497 31.8446 98.3283 31.787C100.268 31.5901 102.9 29.0278 105.385 26.1197C104.646 27.5101 103.842 29.0062 103.149 30.2909L102.938 30.6824C102.647 31.2251 103.051 31.5373 103.096 31.5709C103.558 31.9023 103.94 31.5012 104.17 31.2611C104.328 31.0954 104.545 30.8601 104.818 30.5599C105.978 29.2944 108.139 26.9362 110.308 25.1592C112.685 23.2117 114.45 22.4817 115.279 23.106C115.867 23.5479 115.031 25.0127 114.292 26.3071C113.266 28.1033 111.991 30.3366 113.794 31.4892C115.15 32.3561 117.73 31.3139 119.643 30.2957C119.815 31.0642 120.117 31.7582 120.54 32.3321C121.178 33.1942 122.398 34.3733 124.638 34.3805C125.289 34.3829 129.27 34.3325 133.144 29.645C133.364 29.3784 133.368 28.9966 133.117 28.7589M121.087 26.4175C121.924 23.776 123.868 21.2882 125.513 20.7551C125.712 20.6902 125.898 20.659 126.073 20.659C126.355 20.659 126.606 20.7431 126.831 20.9112C127.355 21.3026 127.24 22.059 126.487 23.1564C125.42 24.7101 123.211 26.6456 120.738 28.2065C120.781 27.623 120.898 27.0179 121.09 26.4151" fill="black"/>
<path d="M36.6219 34.7037C33.3102 35.6042 29.1017 35.0159 26.8875 34.5837C20.4601 33.3325 16.902 28.866 15.8141 27.2667C22.385 25.9123 35.0772 20.819 38.016 13.9222C39.1063 11.3671 39.1039 8.57673 37.1934 6.2618C34.8166 3.37534 29.2595 2.18906 21.2683 3.58426C12.9064 5.0467 6.79701 8.13007 1.26149 10.8028C1.00085 10.9661 0.921942 11.3095 1.08454 11.5712C1.24714 11.833 1.58907 11.9122 1.84971 11.7489C9.16187 8.351 14.1068 6.0961 21.4572 4.68409C28.6881 3.39215 34.2427 4.32629 36.2704 6.84293C38.004 8.99217 37.9275 11.2975 36.9949 13.4827C35.3952 17.2361 30.6966 20.2186 27.0358 22.0581C22.5308 24.325 17.6624 25.8282 14.8361 26.3157C14.8361 26.3157 14.5205 26.3637 14.1403 26.431C13.7601 26.4982 14.3698 27.2114 15.2043 28.3521C15.6467 28.9572 16.3999 29.889 17.4687 30.8927C19.298 32.6145 22.3802 34.843 26.6747 35.6787C28.0855 35.9524 30.2782 36.2886 32.5737 36.2886C34.0347 36.2886 35.5387 36.1542 36.9112 35.7795C37.2077 35.6979 37.3823 35.3929 37.301 35.0951C37.2221 34.7974 36.916 34.6221 36.6195 34.7037" fill="black"/>
<path d="M130.36 19.4551H130.063V19.1213H130.427C130.541 19.1213 130.599 19.1765 130.599 19.2846C130.599 19.3926 130.558 19.4551 130.36 19.4551ZM130.852 19.9162C130.852 19.8921 130.847 19.8657 130.847 19.8417C130.838 19.7432 130.816 19.64 130.733 19.58C130.828 19.5127 130.878 19.4022 130.878 19.2558C130.878 19.0204 130.704 18.8667 130.434 18.8667H129.781V20.2548H130.061V19.7096H130.419C130.532 19.7096 130.558 19.7625 130.577 19.8969C130.584 19.9426 130.587 19.9906 130.587 20.0386C130.587 20.1203 130.594 20.1923 130.635 20.2379L130.649 20.2572H130.981L130.905 20.1659C130.859 20.1083 130.852 20.0146 130.847 19.9162M130.302 20.6366C129.728 20.6366 129.26 20.1659 129.26 19.5896C129.26 19.0132 129.728 18.5425 130.302 18.5401C130.876 18.5401 131.347 19.0132 131.347 19.5896C131.347 20.1659 130.876 20.6366 130.302 20.6366ZM130.302 18.252C129.57 18.252 128.973 18.8523 128.973 19.5896C128.973 20.3268 129.57 20.9272 130.302 20.9272C131.034 20.9272 131.634 20.3268 131.634 19.5896C131.634 18.8523 131.036 18.252 130.302 18.252Z" fill="black"/>
<path d="M149.98 58.0002H88.1974V57.3019H149.98V58.0002ZM94.5227 45.6027H88.1729V54.2173H94.584V52.8625H89.6769V50.5503H93.9706V49.1956H89.6769V46.9549H94.5227V45.6027ZM111.477 45.6027H105.127V54.2173H111.538V52.8625H106.631V50.5503H110.925V49.1956H106.631V46.9549H111.477V45.6027ZM113.324 54.2148H119.331V52.8379H114.828V45.6027H113.324V54.2148ZM120.982 45.6027V54.2173H122.486V45.6027H120.982ZM132.408 53.0229V49.4053H128.762V50.7231H130.953V52.3344C130.428 52.7293 129.692 52.9859 128.885 52.9859C127.135 52.9859 125.972 51.6805 125.972 49.8964C125.972 48.2233 127.172 46.8439 128.75 46.8439C129.839 46.8439 130.487 47.2017 131.147 47.7668L132.101 46.6218C131.22 45.8716 130.303 45.4521 128.811 45.4521C126.23 45.4521 124.395 47.4954 124.395 49.9186C124.395 52.4406 126.156 54.3604 128.836 54.3604C130.352 54.3629 131.564 53.7484 132.408 53.0229ZM139.955 50.5849V54.2148H141.459V45.6002H139.955V49.1808H135.87V45.6002H134.366V54.2148H135.87V50.5849H139.955ZM147.284 47.0043H150V45.6027H143.051V47.0043H145.768V54.2148H147.284V47.0043ZM103.836 45.5854H103.238L100.112 50.1234L97.2657 45.5854H95.4771L98.8851 50.8119V54.2148H100.404V50.5873L103.836 45.5854Z" fill="black"/>
</svg>